<svg width="110" height="110" viewBox="0 0 110 110" fill="none" xmlns="http://www.w3.org/2000/svg">
<g clip-path="url(#clip0)">
<path d="M94.0662 4.74121H72.6778C71.4889 4.74121 70.5247 5.70543 70.5247 6.89437C70.5247 8.08331 71.4889 9.04753 72.6778 9.04753H94.0662C100.477 9.04753 105.693 14.2637 105.693 20.6749V56.8485C105.693 63.2596 100.477 68.4758 94.0662 68.4758H81.4405C80.8716 68.4758 80.3263 68.7007 79.9226 69.1014L71.2423 77.7271V70.6289C71.2423 69.44 70.2781 68.4758 69.0891 68.4758H35.4994C29.0883 68.4758 23.8721 63.2596 23.8721 56.8485V20.6749C23.8721 14.2637 29.0883 9.04753 35.4994 9.04753H56.0264C57.2154 9.04753 58.1796 8.08331 58.1796 6.89437C58.1796 5.70543 57.2154 4.74121 56.0264 4.74121H35.4994C26.7136 4.74121 19.5658 11.8888 19.5658 20.6749V22.7947H15.9336C7.14762 22.7947 0 29.9423 0 38.7284V77.0527C0 85.8386 7.14762 92.9864 15.9336 92.9864H27.6716L39.3932 104.634C39.8047 105.043 40.3534 105.26 40.9115 105.26C41.1902 105.26 41.4712 105.205 41.7385 105.094C42.5413 104.76 43.0645 103.976 43.0645 103.106V92.9864H74.501C83.2868 92.9864 90.4347 85.8388 90.4347 77.0527V72.7821H94.0668C102.853 72.7821 110 65.6345 110 56.8485V20.6749C110 11.889 102.852 4.74121 94.0662 4.74121ZM86.1277 77.0527C86.1277 83.4639 80.9115 88.6801 74.5004 88.6801H40.9107C39.7217 88.6801 38.7575 89.6443 38.7575 90.8332V97.9314L30.0772 89.3057C29.6737 88.905 29.1282 88.6801 28.5593 88.6801H15.9336C15.4969 88.6801 15.0661 88.6539 14.6418 88.6066V75.7925C14.6418 74.6035 13.6776 73.6393 12.4886 73.6393C11.2997 73.6393 10.3355 74.6035 10.3355 75.7925V87.2395C6.74479 85.2585 4.30653 81.4353 4.30653 77.0525V38.7284C4.30653 32.3172 9.52272 27.101 15.9339 27.101H19.5658V56.8485C19.5658 65.6343 26.7134 72.7821 35.4994 72.7821H66.936V82.9021C66.936 83.7718 67.4591 84.5562 68.262 84.8898C68.5294 85.0011 68.8102 85.0552 69.0889 85.0552C69.6471 85.0552 70.1955 84.8382 70.6072 84.4296L82.3288 72.7821H86.1279V77.0527H86.1277Z" fill="#3300FF"/>
<path d="M66.3049 5.3715C65.9047 4.97103 65.351 4.74072 64.7828 4.74072C64.2164 4.74072 63.6611 4.97082 63.2604 5.3715C62.8597 5.77219 62.6294 6.32756 62.6294 6.89388C62.6294 7.46021 62.8595 8.0158 63.2604 8.41605C63.6609 8.81888 64.2164 9.04726 64.7828 9.04726C65.3491 9.04726 65.9047 8.81888 66.3049 8.41605C66.7054 8.0158 66.9361 7.46021 66.9361 6.89388C66.9359 6.32756 66.7056 5.77197 66.3049 5.3715Z" fill="#3300FF"/>
<path d="M72.207 49.993L63.1778 25.8772C62.863 25.0363 62.0591 24.4792 61.1613 24.4792C60.2634 24.4792 59.4597 25.0366 59.1447 25.8774L50.1157 49.9932C49.6989 51.1067 50.2635 52.3477 51.3775 52.7644C51.6263 52.8577 51.8811 52.9017 52.132 52.9017C53.0043 52.9017 53.825 52.3681 54.149 51.5029L57.3338 42.9964H64.9891L68.1742 51.5031C68.591 52.6162 69.8306 53.1815 70.9459 52.7644C72.0594 52.3474 72.6242 51.1067 72.207 49.993ZM58.9464 38.6898L61.1617 32.7731L63.3772 38.6898H58.9464Z" fill="#3300FF"/>
<path d="M94.0287 49.2266L93.0194 48.2154C93.6401 47.0213 93.9933 45.6665 93.9933 44.23V33.1503H93.9935C93.9935 28.3692 90.1038 24.4792 85.3224 24.4792C80.5411 24.4792 76.6514 28.369 76.6514 33.1503V44.2302C76.6514 49.0116 80.5411 52.9013 85.3224 52.9013C87.1061 52.9013 88.7655 52.3593 90.1457 51.4322L90.9814 52.2694C91.4019 52.6905 91.9536 52.9013 92.5053 52.9013C93.0559 52.9013 93.6061 52.6914 94.0266 52.272C94.8675 51.4316 94.8688 50.0684 94.0287 49.2266ZM89.687 44.23C89.687 44.4343 89.6681 44.6339 89.6408 44.8309L88.1756 43.3629C87.3355 42.5216 85.9721 42.5205 85.1304 43.3603C84.2888 44.2006 84.2875 45.5638 85.1278 46.4055L86.9834 48.2643C86.471 48.476 85.9105 48.5946 85.3224 48.5946C82.9155 48.5946 80.9577 46.6365 80.9577 44.2298V33.1499C80.9577 30.7432 82.9158 28.7851 85.3224 28.7851C87.7291 28.7851 89.6872 30.7432 89.6872 33.1499V44.23H89.687Z" fill="#3300FF"/>
<path d="M44.9155 38.6898H37.4913V29.7553C37.4913 29.2204 37.9236 28.7853 38.4551 28.7853H44.9157C46.1046 28.7853 47.0688 27.8211 47.0688 26.6322C47.0688 25.4432 46.1046 24.479 44.9157 24.479H38.4549C35.5489 24.479 33.1848 26.8459 33.1848 29.7553V50.7479C33.1848 51.9368 34.149 52.9011 35.338 52.9011C36.5269 52.9011 37.4911 51.9368 37.4911 50.7479V42.9961H44.9153C46.1042 42.9961 47.0684 42.0319 47.0684 40.843C47.0684 39.654 46.1044 38.6898 44.9155 38.6898Z" fill="#3300FF"/>
<path d="M14.0105 66.195C13.61 65.7943 13.0544 65.564 12.4881 65.564C11.9218 65.564 11.3664 65.7943 10.9657 66.195C10.5655 66.5952 10.335 67.1508 10.335 67.7171C10.335 68.2835 10.5653 68.839 10.9657 69.2395C11.3662 69.64 11.9218 69.8703 12.4881 69.8703C13.0544 69.8703 13.61 69.6402 14.0105 69.2395C14.4108 68.839 14.6413 68.2835 14.6413 67.7171C14.6415 67.1508 14.411 66.5952 14.0105 66.195Z" fill="#3300FF"/>
</g>
<defs>
<clipPath id="clip0">
<rect width="110" height="110" fill="white"/>
</clipPath>
</defs>
</svg>
