<svg width="129" height="129" viewBox="0 0 129 129" fill="none" xmlns="http://www.w3.org/2000/svg">
<path d="M116.004 114.273H12.996C10.4757 114.27 8.05932 113.268 6.27671 111.487C4.4941 109.705 3.49072 107.289 3.48657 104.769V36.6482C3.48703 34.1245 4.48844 31.7041 6.27115 29.9178C8.05386 28.1315 10.4723 27.1252 12.996 27.1196H48.8667C49.329 27.1196 49.7724 27.3033 50.0993 27.6302C50.4263 27.9571 50.6099 28.4005 50.6099 28.8629C50.6099 29.3252 50.4263 29.7686 50.0993 30.0955C49.7724 30.4225 49.329 30.6061 48.8667 30.6061H12.996C11.3967 30.6107 9.86452 31.2494 8.73545 32.3821C7.60638 33.5147 6.97259 35.0489 6.97306 36.6482V104.769C6.9749 106.366 7.61005 107.897 8.73917 109.026C9.86828 110.155 11.3992 110.79 12.996 110.792H116.004C117.601 110.79 119.132 110.155 120.261 109.026C121.39 107.897 122.025 106.366 122.027 104.769V36.6482C122.028 35.0489 121.394 33.5147 120.265 32.3821C119.136 31.2494 117.603 30.6107 116.004 30.6061H80.1335C79.6712 30.6061 79.2278 30.4225 78.9008 30.0955C78.5739 29.7686 78.3903 29.3252 78.3903 28.8629C78.3903 28.4005 78.5739 27.9571 78.9008 27.6302C79.2278 27.3033 79.6712 27.1196 80.1335 27.1196H116.004C118.528 27.1252 120.946 28.1315 122.729 29.9178C124.512 31.7041 125.513 34.1245 125.514 36.6482V104.769C125.509 107.289 124.506 109.705 122.723 111.487C120.941 113.268 118.525 114.27 116.004 114.273Z" fill="#27AE60"/>
<path d="M77.7295 37.3211H51.2706C50.1729 37.3197 49.1207 36.8831 48.3445 36.1069C47.5684 35.3308 47.1318 34.2785 47.1304 33.1809V18.8671C47.1318 17.7695 47.5684 16.7172 48.3445 15.9411C49.1207 15.165 50.1729 14.7283 51.2706 14.7269H77.7295C78.8272 14.7283 79.8794 15.165 80.6556 15.9411C81.4317 16.7172 81.8683 17.7695 81.8697 18.8671V33.1809C81.8683 34.2785 81.4317 35.3308 80.6556 36.1069C79.8794 36.8831 78.8272 37.3197 77.7295 37.3211ZM51.2706 18.2134C51.0973 18.2139 50.9313 18.2829 50.8088 18.4054C50.6863 18.5279 50.6173 18.6939 50.6169 18.8671V33.1809C50.6173 33.3541 50.6863 33.5201 50.8088 33.6426C50.9313 33.7651 51.0973 33.8342 51.2706 33.8346H77.7295C77.9028 33.8342 78.0688 33.7651 78.1913 33.6426C78.3138 33.5201 78.3828 33.3541 78.3832 33.1809V18.8671C78.3828 18.6939 78.3138 18.5279 78.1913 18.4054C78.0688 18.2829 77.9028 18.2139 77.7295 18.2134H51.2706Z" fill="#27AE60"/>
<path d="M36.7111 64.9602C34.5993 64.9602 32.5349 64.334 30.779 63.1607C29.0231 61.9875 27.6546 60.3199 26.8465 58.3689C26.0383 56.4179 25.8269 54.271 26.2389 52.1998C26.6508 50.1286 27.6678 48.2261 29.161 46.7328C30.6543 45.2395 32.5568 44.2226 34.628 43.8106C36.6992 43.3986 38.8461 43.6101 40.7971 44.4182C42.7481 45.2264 44.4157 46.5949 45.589 48.3508C46.7622 50.1067 47.3884 52.1711 47.3884 54.2828C47.3852 57.1137 46.2592 59.8276 44.2575 61.8293C42.2558 63.831 39.5419 64.957 36.7111 64.9602ZM36.7111 47.092C35.2888 47.092 33.8986 47.5137 32.716 48.3038C31.5335 49.094 30.6118 50.217 30.0676 51.531C29.5233 52.845 29.3809 54.2908 29.6584 55.6857C29.9358 57.0806 30.6207 58.3619 31.6263 59.3676C32.632 60.3732 33.9133 61.0581 35.3082 61.3355C36.7031 61.613 38.1489 61.4706 39.4629 60.9263C40.7768 60.3821 41.8999 59.4604 42.6901 58.2779C43.4802 57.0953 43.9019 55.7051 43.9019 54.2828C43.9001 52.3763 43.1419 50.5483 41.7937 49.2002C40.4456 47.852 38.6176 47.0938 36.7111 47.092Z" fill="#27AE60"/>
<path d="M55.5173 83.2695H17.9051C17.672 83.2696 17.4412 83.223 17.2265 83.1323C17.0117 83.0417 16.8173 82.9089 16.6548 82.7418C16.4923 82.5747 16.3649 82.3768 16.2802 82.1596C16.1956 81.9424 16.1553 81.7105 16.1618 81.4775C16.3097 76.126 18.5395 71.0433 22.3769 67.3104C26.2144 63.5775 31.3568 61.489 36.7103 61.489C42.0638 61.489 47.2062 63.5775 51.0436 67.3104C54.8811 71.0433 57.1109 76.126 57.2588 81.4775C57.2653 81.7105 57.225 81.9424 57.1404 82.1596C57.0557 82.3768 56.9283 82.5747 56.7658 82.7418C56.6032 82.9089 56.4089 83.0417 56.1941 83.1323C55.9794 83.223 55.7486 83.2696 55.5155 83.2695H55.5173ZM19.7808 79.7831H53.6346C53.0904 75.6801 51.0742 71.9145 47.9611 69.187C44.848 66.4595 40.8501 64.9558 36.7112 64.9558C32.5723 64.9558 28.5743 66.4595 25.4612 69.187C22.3481 71.9145 20.3319 75.6801 19.7878 79.7831H19.7808Z" fill="#27AE60"/>
<path d="M111.095 49.4628H72.6253C72.163 49.4628 71.7196 49.2791 71.3927 48.9522C71.0657 48.6253 70.8821 48.1819 70.8821 47.7196C70.8821 47.2572 71.0657 46.8138 71.3927 46.4869C71.7196 46.16 72.163 45.9763 72.6253 45.9763H111.095C111.558 45.9763 112.001 46.16 112.328 46.4869C112.655 46.8138 112.838 47.2572 112.838 47.7196C112.838 48.1819 112.655 48.6253 112.328 48.9522C112.001 49.2791 111.558 49.4628 111.095 49.4628Z" fill="#27AE60"/>
<path d="M111.095 65.5721H72.6253C72.163 65.5721 71.7196 65.3884 71.3927 65.0615C71.0657 64.7346 70.8821 64.2912 70.8821 63.8288C70.8821 63.3665 71.0657 62.9231 71.3927 62.5962C71.7196 62.2692 72.163 62.0856 72.6253 62.0856H111.095C111.558 62.0856 112.001 62.2692 112.328 62.5962C112.655 62.9231 112.838 63.3665 112.838 63.8288C112.838 64.2912 112.655 64.7346 112.328 65.0615C112.001 65.3884 111.558 65.5721 111.095 65.5721Z" fill="#27AE60"/>
<path d="M111.095 81.6814H72.6253C72.163 81.6814 71.7196 81.4978 71.3927 81.1709C71.0657 80.8439 70.8821 80.4005 70.8821 79.9382C70.8821 79.4759 71.0657 79.0325 71.3927 78.7055C71.7196 78.3786 72.163 78.1949 72.6253 78.1949H111.095C111.558 78.1949 112.001 78.3786 112.328 78.7055C112.655 79.0325 112.838 79.4759 112.838 79.9382C112.838 80.4005 112.655 80.8439 112.328 81.1709C112.001 81.4978 111.558 81.6814 111.095 81.6814Z" fill="#27AE60"/>
<path d="M111.095 97.7961H17.9049C17.4425 97.7961 16.9991 97.6124 16.6722 97.2855C16.3453 96.9586 16.1616 96.5152 16.1616 96.0528C16.1616 95.5905 16.3453 95.1471 16.6722 94.8202C16.9991 94.4932 17.4425 94.3096 17.9049 94.3096H111.095C111.557 94.3096 112.001 94.4932 112.328 94.8202C112.655 95.1471 112.838 95.5905 112.838 96.0528C112.838 96.5152 112.655 96.9586 112.328 97.2855C112.001 97.6124 111.557 97.7961 111.095 97.7961Z" fill="#27AE60"/>
</svg>
