<svg width="97" height="97" viewBox="0 0 97 97" fill="none" xmlns="http://www.w3.org/2000/svg">
<path d="M84.876 17.6191C85.9223 17.6191 86.7705 16.771 86.7705 15.7246V5.68359C86.7705 2.54966 84.2208 0 81.0869 0H5.68457C2.55064 0 0.000976562 2.54966 0.000976562 5.68359V91.3164C0.000976562 94.4503 2.55064 97 5.68457 97H81.0869C84.2208 97 86.7705 94.4503 86.7705 91.3164V86.0117C86.7705 84.9654 85.9223 84.1172 84.876 84.1172C83.8296 84.1172 82.9814 84.9654 82.9814 86.0117V91.3164C82.9814 92.3611 82.1315 93.2109 81.0869 93.2109H5.68457C4.63993 93.2109 3.79004 92.3611 3.79004 91.3164V5.68359C3.79004 4.63895 4.63993 3.78906 5.68457 3.78906H81.0869C82.1315 3.78906 82.9814 4.63895 82.9814 5.68359V15.7246C82.9814 16.771 83.8296 17.6191 84.876 17.6191Z" fill="#F2994A"/>
<path d="M75.783 9.09375H10.9878C9.94144 9.09375 9.09326 9.94193 9.09326 10.9883V50.584C9.09326 51.6303 9.94144 52.4785 10.9878 52.4785C12.0341 52.4785 12.8823 51.6303 12.8823 50.584V12.8828H73.8885V15.9141C73.8885 16.9604 74.7369 17.8086 75.783 17.8086C76.8294 17.8086 77.6776 16.9604 77.6776 15.9141V10.9883C77.6776 9.94193 76.8294 9.09375 75.783 9.09375Z" fill="#F2994A"/>
<path d="M12.3265 56.2543C11.9741 55.9019 11.4872 55.6992 10.9871 55.6992C10.4888 55.6992 10 55.9019 9.64763 56.2543C9.29524 56.6067 9.09253 57.0955 9.09253 57.5938C9.09253 58.092 9.29524 58.5808 9.64763 58.9332C10 59.2856 10.4888 59.4883 10.9871 59.4883C11.4872 59.4883 11.9741 59.2856 12.3265 58.9332C12.6808 58.5808 12.8816 58.092 12.8816 57.5938C12.8816 57.0955 12.6808 56.6067 12.3265 56.2543Z" fill="#F2994A"/>
<path d="M75.783 79.9492C74.7367 79.9492 73.8885 80.7974 73.8885 81.8438V84.1172H12.8823V64.8877C12.8823 63.8413 12.0341 62.9932 10.9878 62.9932C9.94144 62.9932 9.09326 63.8413 9.09326 64.8877V86.0117C9.09326 87.0581 9.94144 87.9062 10.9878 87.9062H75.783C76.8294 87.9062 77.6776 87.0581 77.6776 86.0117V81.8438C77.6776 80.7974 76.8294 79.9492 75.783 79.9492Z" fill="#F2994A"/>
<path d="M58.713 66.9406C57.9732 66.2006 56.7738 66.2006 56.0338 66.9405L52.2894 70.685L49.962 68.3574C48.4924 66.888 46.1017 66.888 44.6321 68.3574L43.1176 69.8719C42.3778 70.6117 42.3778 71.8113 43.1176 72.5513C43.8574 73.2911 45.057 73.2911 45.797 72.5513L47.2971 71.0512L49.6246 73.3788C50.3593 74.1135 51.3243 74.4809 52.2894 74.4809C53.2545 74.4809 54.2196 74.1135 54.9543 73.3788L58.713 69.6201C59.4528 68.8803 59.4528 67.6807 58.713 66.9406Z" fill="#F2994A"/>
<path d="M96.1286 39.7439C96.9635 38.4414 97.2128 36.8371 96.8123 35.3427C96.4118 33.8483 95.3941 32.5837 94.0196 31.8732C93.4236 31.5652 93.0587 30.9332 93.0899 30.2631C93.1617 28.7175 92.5756 27.2038 91.4817 26.1097C90.3878 25.0158 88.8744 24.4287 87.3283 24.5014C86.655 24.534 86.0262 24.1676 85.7181 23.5718C85.0077 22.1975 83.7431 21.1796 82.2487 20.7791C80.7537 20.3784 79.15 20.6279 77.8477 21.4628C77.2829 21.825 76.5531 21.8248 75.9886 21.4628C74.6861 20.6277 73.0822 20.3786 71.5876 20.7791C70.0932 21.1796 68.8286 22.1975 68.1181 23.5718C67.8101 24.1678 67.1763 24.5317 66.508 24.5014C64.9618 24.4293 63.4487 25.0158 62.3548 26.1097C61.2607 27.2038 60.6745 28.7175 60.7463 30.2629C60.7776 30.9332 60.4125 31.5652 59.8167 31.8732C58.4424 32.5837 57.4244 33.8481 57.0239 35.3427C56.8328 36.0556 56.7913 36.7935 56.8892 37.5117H23.8297C22.7833 37.5117 21.9351 38.3599 21.9351 39.4063C21.9351 40.4526 22.7833 41.3008 23.8297 41.3008H57.8572C57.8164 41.4048 57.7692 41.5069 57.7075 41.6032C56.8726 42.9057 56.6232 44.51 57.0237 46.0044C57.0787 46.2095 57.1463 46.41 57.224 46.6055H23.8291C22.7828 46.6055 21.9346 47.4537 21.9346 48.5C21.9346 49.5464 22.7828 50.3946 23.8291 50.3946H60.6332C60.7156 50.6111 60.7569 50.8447 60.7457 51.084C60.6739 52.6295 61.2601 54.1433 62.3542 55.2374C63.4481 56.3313 64.9613 56.9186 66.5074 56.8456C67.1767 56.8129 67.8095 57.1793 68.1175 57.7753C68.3451 58.2156 68.6302 58.6185 68.9608 58.9772V76.6708C68.9608 77.4362 69.4214 78.1263 70.128 78.4202C70.8345 78.714 71.6488 78.5537 72.1915 78.0138L76.9178 73.3121L81.6441 78.0138C82.0064 78.3741 82.4893 78.5653 82.9807 78.5653C83.2255 78.5653 83.4725 78.5177 83.7076 78.42C84.4143 78.1261 84.8749 77.436 84.8749 76.6706V58.977C85.2055 58.6185 85.4906 58.2154 85.7181 57.7751C86.0262 57.1791 86.6589 56.8149 87.3283 56.8454C88.8754 56.9186 90.3876 56.3313 91.4815 55.2372C92.5756 54.1431 93.1617 52.6293 93.0899 51.0838C93.0587 50.4137 93.4237 49.7817 94.0196 49.4736C95.3939 48.7632 96.4118 47.4988 96.8123 46.0042C97.2128 44.5096 96.9635 42.9055 96.1286 41.6028C95.7663 41.0384 95.7663 40.3086 96.1286 39.7439ZM81.0858 72.1138L78.2539 69.2967C77.5148 68.5614 76.3207 68.5614 75.5816 69.2967L72.7499 72.1138V60.7482C73.8834 60.8016 75.0193 60.5053 75.9884 59.8843C76.5531 59.522 77.2829 59.5222 77.8475 59.8843C78.7423 60.4579 79.7793 60.7552 80.8257 60.7552C80.9125 60.7552 80.999 60.7508 81.0858 60.7467V72.1138ZM93.1523 45.0238C93.0253 45.4976 92.7152 45.8827 92.2794 46.108C90.3728 47.0937 89.205 49.1159 89.3048 51.2602C89.3278 51.7503 89.1491 52.2112 88.8022 52.5583C88.4553 52.9052 87.9944 53.0833 87.5043 53.0609C85.3589 52.9617 83.3378 54.1287 82.3521 56.0355C82.1269 56.4715 81.7417 56.7814 81.2677 56.9083C80.794 57.0351 80.3053 56.9595 79.8924 56.6946C78.9887 56.1153 77.9534 55.8258 76.9176 55.8258C75.8823 55.8258 74.8465 56.1155 73.943 56.6946C73.53 56.9593 73.0414 57.0351 72.5676 56.9083C72.0936 56.7814 71.7086 56.4713 71.4832 56.0355C70.4975 54.1289 68.4768 52.9607 66.331 53.0609C65.842 53.0835 65.38 52.9052 65.0331 52.5583C64.686 52.2112 64.5075 51.7503 64.5304 51.26C64.6007 49.7466 64.0375 48.2958 63.0309 47.2256C63.0014 47.1932 62.9712 47.1614 62.9394 47.131C62.5397 46.7258 62.0765 46.3772 61.5558 46.108C61.1201 45.8827 60.8102 45.4978 60.6832 45.0238C60.5563 44.5497 60.6321 44.0611 60.8969 43.6483C62.0554 41.8413 62.0554 39.5061 60.8969 37.6991C60.6323 37.2861 60.5563 36.7975 60.6832 36.3235C60.8102 35.8497 61.1203 35.4645 61.556 35.2393C63.4627 34.2535 64.6303 32.2313 64.5306 30.0871C64.5077 29.597 64.6864 29.136 65.0333 28.7889C65.3801 28.4419 65.842 28.2638 66.3312 28.2863C68.4767 28.3858 70.4978 27.2186 71.4834 25.3117C71.7086 24.8758 72.0938 24.5658 72.5678 24.4389C73.0416 24.3122 73.5302 24.3878 73.943 24.6526C75.7502 25.8113 78.0856 25.8113 79.8923 24.6526C80.3053 24.388 80.7937 24.3118 81.2677 24.4389C81.7417 24.5658 82.1267 24.876 82.3521 25.3117C83.3378 27.2184 85.3599 28.3864 87.5043 28.2863C87.9946 28.264 88.4553 28.4419 88.8022 28.7889C89.1493 29.136 89.3278 29.597 89.3048 30.0871C89.2052 32.2311 90.3726 34.2535 92.2796 35.2393C92.7154 35.4645 93.0253 35.8495 93.1523 36.3235C93.2792 36.7975 93.2034 37.2861 92.9386 37.6989C91.78 39.5059 91.78 41.8411 92.9386 43.6481C93.2034 44.0611 93.2794 44.5497 93.1523 45.0238Z" fill="#F2994A"/>
<path d="M85.9276 35.5198C85.1878 34.78 83.9882 34.78 83.2483 35.5198L76.9602 41.8082L74.457 39.3049C73.7171 38.5651 72.5175 38.5651 71.7775 39.3049C71.0377 40.0447 71.0377 41.2443 71.7775 41.9843L75.6204 45.8272C75.9904 46.1972 76.4752 46.3821 76.96 46.3821C77.4448 46.3821 77.9298 46.1972 78.2996 45.8272L85.9276 38.1993C86.6674 37.4594 86.6674 36.2598 85.9276 35.5198Z" fill="#F2994A"/>
<path d="M23.1273 22.9106C22.7749 22.5582 22.2861 22.3555 21.7878 22.3555C21.2896 22.3555 20.8008 22.5582 20.4484 22.9106C20.096 23.2629 19.8933 23.7517 19.8933 24.25C19.8933 24.7483 20.096 25.2371 20.4484 25.5894C20.8008 25.9418 21.2896 26.1445 21.7878 26.1445C22.2861 26.1445 22.7749 25.9418 23.1273 25.5894C23.4797 25.2371 23.6824 24.7483 23.6824 24.25C23.6824 23.7517 23.4797 23.2629 23.1273 22.9106Z" fill="#F2994A"/>
<path d="M38.0795 22.3555H28.8594C27.813 22.3555 26.9648 23.2037 26.9648 24.25C26.9648 25.2963 27.813 26.1445 28.8594 26.1445H38.0795C39.1258 26.1445 39.974 25.2963 39.974 24.25C39.974 23.2037 39.1258 22.3555 38.0795 22.3555Z" fill="#F2994A"/>
<path d="M57.3735 55.6992H35.7148C34.6685 55.6992 33.8203 56.5474 33.8203 57.5938C33.8203 58.6401 34.6685 59.4883 35.7148 59.4883H57.3733C58.4197 59.4883 59.2679 58.6401 59.2679 57.5938C59.2679 56.5474 58.4199 55.6992 57.3735 55.6992Z" fill="#F2994A"/>
</svg>
