<svg width="100" height="100" viewBox="0 0 100 100" fill="none" xmlns="http://www.w3.org/2000/svg">
<g clip-path="url(#clip0)">
<path d="M45.8322 95.768C20.5621 95.768 0 75.2067 0 49.9366C0 24.6666 20.5621 4.10449 45.8322 4.10449C54.6194 4.10449 63.1687 6.60838 70.556 11.3499C72.0063 12.2837 72.4312 14.2169 71.4974 15.6711C70.5605 17.1252 68.6311 17.5455 67.177 16.6125C60.8021 12.5164 53.4194 10.3543 45.8322 10.3543C24.0074 10.3543 6.24981 28.1119 6.24981 49.9366C6.24981 71.7606 24.0074 89.5182 45.8322 89.5182C67.6561 89.5182 85.4138 71.7606 85.4138 49.9366C85.4138 48.6321 85.3512 47.3404 85.2307 46.0702C85.0643 44.3491 86.3224 42.824 88.0389 42.6577C89.7639 42.499 91.2844 43.7494 91.4515 45.466C91.5926 46.9369 91.6636 48.4284 91.6636 49.9366C91.6636 75.2067 71.1022 95.768 45.8322 95.768Z" fill="#FF3C8E"/>
<path d="M51.0398 60.3528C50.2403 60.3528 49.44 60.0484 48.8319 59.4365L30.0825 40.6871C28.8618 39.4657 28.8618 37.4867 30.0825 36.266C31.3032 35.0453 33.2822 35.0453 34.5028 36.266L51.0444 52.8075L94.6633 9.18784C95.8847 7.96717 97.8637 7.96717 99.0844 9.18784C100.305 10.4085 100.305 12.3875 99.0844 13.6082L53.2522 59.4403C52.6396 60.0484 51.8401 60.3528 51.0398 60.3528Z" fill="#FF3C8E"/>
</g>
<defs>
<clipPath id="clip0">
<rect width="100" height="100" fill="white"/>
</clipPath>
</defs>
</svg>
