<svg width="224" height="208" viewBox="0 0 224 208" fill="none" xmlns="http://www.w3.org/2000/svg">
<rect x="102" y="136" width="22" height="22" fill="#E5F1FF" fill-opacity="0.45"/>
<rect x="102" y="186" width="22" height="22" fill="#E5F1FF" fill-opacity="0.45"/>
<rect x="152" y="136" width="22" height="22" fill="#E5F1FF" fill-opacity="0.45"/>
<rect x="202" y="136" width="22" height="22" fill="#E5F1FF" fill-opacity="0.45"/>
<rect x="152" y="186" width="22" height="22" fill="#E5F1FF" fill-opacity="0.45"/>
<rect x="202" y="186" width="22" height="22" fill="#E5F1FF" fill-opacity="0.45"/>
<rect x="102" y="86" width="22" height="22" fill="#E5F1FF" fill-opacity="0.45"/>
<rect x="54" y="86" width="22" height="22" fill="#E5F1FF" fill-opacity="0.45"/>
<rect x="152" y="86" width="22" height="22" fill="#E5F1FF" fill-opacity="0.45"/>
<rect x="202" y="86" width="22" height="22" fill="#E5F1FF" fill-opacity="0.45"/>
<rect x="54" y="136" width="22" height="22" fill="#E5F1FF" fill-opacity="0.45"/>
<rect x="54" y="186" width="22" height="22" fill="#E5F1FF" fill-opacity="0.45"/>
<circle r="12" transform="matrix(1 0 0 -1 118 96)" fill="#FF3C8E" fill-opacity="0.15"/>
<circle r="12" transform="matrix(1 0 0 -1 65 96)" fill="#FF3C8E" fill-opacity="0.15"/>
<circle r="12" transform="matrix(1 0 0 -1 12 54)" fill="#FF3C8E" fill-opacity="0.15"/>
<circle r="12" transform="matrix(1 0 0 -1 118 54)" fill="#FF3C8E" fill-opacity="0.15"/>
<circle r="12" transform="matrix(1 0 0 -1 65 54)" fill="#FF3C8E" fill-opacity="0.15"/>
<circle r="12" transform="matrix(1 0 0 -1 12 96)" fill="#FF3C8E" fill-opacity="0.15"/>
<circle r="12" transform="matrix(1 0 0 -1 65 12)" fill="#FF3C8E" fill-opacity="0.15"/>
<circle r="12" transform="matrix(1 0 0 -1 12 12)" fill="#FF3C8E" fill-opacity="0.15"/>
</svg>
