<svg width="35" height="35" viewBox="0 0 35 35" fill="none" xmlns="http://www.w3.org/2000/svg">
<circle cx="17.5" cy="17.5" r="16.5" fill="#F2994A"/>
<g clip-path="url(#clip0)">
<path d="M22.6042 18.2291H0.729167C0.326667 18.2291 0 17.9024 0 17.4999C0 17.0974 0.326667 16.7708 0.729167 16.7708H22.6042C23.0067 16.7708 23.3333 17.0974 23.3333 17.4999C23.3333 17.9024 23.0067 18.2291 22.6042 18.2291Z" fill="white"/>
<path d="M16.7708 24.0625C16.5841 24.0625 16.3975 23.991 16.2545 23.8496C15.9702 23.5652 15.9702 23.1029 16.2545 22.8185L21.5731 17.5L16.256 12.1829C15.9716 11.8985 15.9716 11.4363 16.256 11.1519C16.5404 10.8675 17.0027 10.8675 17.287 11.1519L23.1204 16.9852C23.4047 17.2696 23.4047 17.7319 23.1204 18.0163L17.287 23.8496C17.1441 23.991 16.9575 24.0625 16.7708 24.0625Z" fill="white"/>
<path d="M17.5001 33.5416C10.7116 33.5416 4.63325 29.2439 2.37429 22.8476C2.24013 22.467 2.43992 22.0514 2.81909 21.9172C3.19971 21.786 3.61534 21.9828 3.7495 22.362C5.80284 28.1764 11.3285 32.0833 17.5001 32.0833C25.5414 32.0833 32.0835 25.5412 32.0835 17.4999C32.0835 9.45867 25.5414 2.91659 17.5001 2.91659C11.3285 2.91659 5.80284 6.82346 3.75096 12.6393C3.61679 13.0185 3.19971 13.2153 2.82054 13.0841C2.44138 12.9499 2.24159 12.5343 2.37575 12.1537C4.63325 5.75596 10.7116 1.45825 17.5001 1.45825C26.3449 1.45825 33.5418 8.65513 33.5418 17.4999C33.5418 26.3447 26.3449 33.5416 17.5001 33.5416Z" fill="white"/>
</g>
<defs>
<clipPath id="clip0">
<rect width="35" height="35" fill="white"/>
</clipPath>
</defs>
</svg>
