<svg width="72" height="72" viewBox="0 0 72 72" fill="none" xmlns="http://www.w3.org/2000/svg">
<path d="M60 32.997H66C66 17.607 54.381 6 38.97 6V12C51.156 12 60 20.829 60 32.997Z" fill="#FF3C8E"/>
<path d="M38.9999 24C45.3089 24 47.9999 26.691 47.9999 33H53.9999C53.9999 23.325 48.6749 18 38.9999 18V24ZM49.2659 40.329C48.6894 39.805 47.9319 39.5256 47.1533 39.5497C46.3747 39.5737 45.6359 39.8994 45.0929 40.458L37.9139 47.841C36.1859 47.511 32.7119 46.428 29.1359 42.861C25.5599 39.282 24.4769 35.799 24.1559 34.083L31.5329 26.901C32.0921 26.3584 32.4183 25.6194 32.4424 24.8406C32.4664 24.0618 32.1865 23.3041 31.6619 22.728L20.5769 10.539C20.052 9.96105 19.3225 9.6105 18.5433 9.56176C17.7641 9.51303 16.9967 9.76996 16.4039 10.278L9.89387 15.861C9.3752 16.3815 9.06563 17.0743 9.02387 17.808C8.97887 18.558 8.12087 36.324 21.8969 50.106C33.9149 62.121 48.9689 63 53.1149 63C53.7209 63 54.0929 62.982 54.1919 62.976C54.9254 62.9349 55.6178 62.624 56.1359 62.103L61.7159 55.59C62.2243 54.9976 62.4817 54.2303 62.4335 53.4511C62.3854 52.672 62.0354 51.9423 61.4579 51.417L49.2659 40.329Z" fill="#FF3C8E"/>
</svg>
