<svg width="72" height="72" viewBox="0 0 72 72" fill="none" xmlns="http://www.w3.org/2000/svg">
<path d="M60 32.9968H66C66 17.6068 54.381 5.99976 38.97 5.99976V11.9998C51.156 11.9998 60 20.8288 60 32.9968Z" fill="#3300FF"/>
<path d="M38.9999 23.9997C45.3089 23.9997 47.9999 26.6907 47.9999 32.9997H53.9999C53.9999 23.3247 48.6749 17.9997 38.9999 17.9997V23.9997ZM49.2659 40.3287C48.6894 39.8048 47.9319 39.5254 47.1533 39.5494C46.3747 39.5735 45.6359 39.8992 45.0929 40.4577L37.9139 47.8407C36.1859 47.5107 32.7119 46.4277 29.1359 42.8607C25.5599 39.2817 24.4769 35.7987 24.1559 34.0827L31.5329 26.9007C32.0921 26.3581 32.4183 25.6192 32.4424 24.8404C32.4664 24.0615 32.1865 23.3039 31.6619 22.7277L20.5769 10.5387C20.052 9.96081 19.3225 9.61025 18.5433 9.56152C17.7641 9.51279 16.9967 9.76972 16.4039 10.2777L9.89387 15.8607C9.3752 16.3813 9.06563 17.0741 9.02387 17.8077C8.97887 18.5577 8.12087 36.3237 21.8969 50.1057C33.9149 62.1207 48.9689 62.9997 53.1149 62.9997C53.7209 62.9997 54.0929 62.9817 54.1919 62.9757C54.9254 62.9347 55.6178 62.6237 56.1359 62.1027L61.7159 55.5897C62.2243 54.9973 62.4817 54.2301 62.4335 53.4509C62.3854 52.6717 62.0354 51.942 61.4579 51.4167L49.2659 40.3287Z" fill="#3300FF"/>
</svg>
