<svg width="75" height="61" viewBox="0 0 75 61" fill="none" xmlns="http://www.w3.org/2000/svg">
<path d="M58.5205 51.8592H7.69043C7.08369 51.8592 6.5918 52.3511 6.5918 52.9579C6.5918 53.5646 7.08369 54.0565 7.69043 54.0565H58.5205C59.1272 54.0565 59.6191 53.5646 59.6191 52.9579C59.6191 52.3511 59.1272 51.8592 58.5205 51.8592ZM58.5205 47.4647H7.69043C7.08369 47.4647 6.5918 47.9566 6.5918 48.5633C6.5918 49.1701 7.08369 49.662 7.69043 49.662H58.5205C59.1272 49.662 59.6191 49.1701 59.6191 48.5633C59.6191 47.9566 59.1272 47.4647 58.5205 47.4647ZM65.1123 33.1461C64.5056 33.1461 64.0137 33.638 64.0137 34.2448V55.1551C64.0137 56.9726 62.5352 58.451 60.7178 58.451H5.49316C3.67573 58.451 2.19727 56.9726 2.19727 55.1551V20.054C2.19727 18.2365 3.67573 16.7581 5.49316 16.7581H39.821C40.4278 16.7581 40.9197 16.2662 40.9197 15.6594C40.9197 15.0527 40.4278 14.5608 39.821 14.5608H5.49316C2.46416 14.5608 0 17.025 0 20.054V55.1551C0 58.1841 2.46416 60.6483 5.49316 60.6483H60.7178C63.7468 60.6483 66.2109 58.1841 66.2109 55.1551V34.2448C66.2109 33.638 65.719 33.1461 65.1123 33.1461ZM59.0585 0.351807C50.2683 0.351807 43.1169 7.50317 43.1169 16.2933C43.1169 17.9872 43.3835 19.6198 43.8751 21.1526H36.2549C35.6481 21.1526 35.1562 21.6445 35.1562 22.2512C35.1562 22.858 35.6481 23.3499 36.2549 23.3499H44.7667C45.1481 24.1192 45.5892 24.854 46.085 25.5471H36.2549C35.6481 25.5471 35.1562 26.039 35.1562 26.6458C35.1562 27.2525 35.6481 27.7444 36.2549 27.7444H47.9798C50.8503 30.5223 54.7579 32.2349 59.0584 32.2349C67.8485 32.2349 74.9999 25.0835 74.9999 16.2933C75 7.50317 67.8486 0.351807 59.0585 0.351807ZM59.0585 30.0376C51.4799 30.0376 45.3142 23.8719 45.3142 16.2933C45.3142 8.71475 51.4799 2.54907 59.0585 2.54907C66.6371 2.54907 72.8027 8.71475 72.8027 16.2933C72.8027 23.8719 66.6371 30.0376 59.0585 30.0376ZM10.593 45.0599C10.9279 45.1533 11.4397 45.2522 12.085 45.2674H25.2136C28.0081 45.3221 30.7645 42.8257 30.7068 39.7743V26.6458C30.7068 23.6167 28.2426 21.1526 25.2136 21.1526H12.085C9.05596 21.1526 6.5918 23.6167 6.5918 26.6458V39.7743C6.5918 42.286 8.28706 44.408 10.593 45.0599ZM12.2164 43.0702C13.0901 40.3199 15.6841 38.3576 18.6492 38.3576C21.6145 38.3576 24.2084 40.3199 25.0821 43.0702H12.2164ZM14.4412 31.9524C14.4412 29.6321 16.3289 27.7444 18.6492 27.7444C20.9695 27.7444 22.8573 29.6321 22.8573 31.9524C22.8573 34.2728 20.9695 36.1605 18.6492 36.1605C16.3289 36.1605 14.4412 34.2726 14.4412 31.9524ZM8.78906 26.6458C8.78906 24.8283 10.2675 23.3499 12.085 23.3499H25.2136C27.0311 23.3499 28.5095 24.8283 28.5095 26.6458V39.7743C28.5095 40.8555 27.9861 41.8166 27.1796 42.418C26.4283 40.0441 24.7121 38.112 22.5208 37.0508C24.059 35.8798 25.0545 34.0305 25.0545 31.9524C25.0545 28.4206 22.1811 25.5471 18.6492 25.5471C15.1173 25.5471 12.2439 28.4206 12.2439 31.9524C12.2439 34.0305 13.2393 35.8798 14.7776 37.0508C12.5865 38.112 10.8703 40.0441 10.119 42.418C9.31245 41.8166 8.78906 40.8555 8.78906 39.7743V26.6458ZM64.541 12.4366L56.9194 20.0582C56.8128 20.1647 56.6398 20.1647 56.5332 20.0582L53.5759 17.101C53.1469 16.6719 52.4512 16.6719 52.0223 17.101C51.5933 17.53 51.5933 18.2257 52.0223 18.6546L54.9795 21.6118C55.4612 22.0935 56.0937 22.3343 56.7264 22.3343C57.359 22.3343 57.9916 22.0935 58.4732 21.6118L66.0948 13.9902C66.5238 13.5612 66.5238 12.8655 66.0948 12.4366C65.6656 12.0076 64.9699 12.0076 64.541 12.4366ZM58.5205 38.6756H36.2549C35.6481 38.6756 35.1562 39.1675 35.1562 39.7743C35.1562 40.381 35.6481 40.8729 36.2549 40.8729H58.5205C59.1272 40.8729 59.6191 40.381 59.6191 39.7743C59.6191 39.1675 59.1272 38.6756 58.5205 38.6756ZM58.5205 43.0702H36.2549C35.6481 43.0702 35.1562 43.5621 35.1562 44.1688C35.1562 44.7755 35.6481 45.2674 36.2549 45.2674H58.5205C59.1272 45.2674 59.6191 44.7755 59.6191 44.1688C59.6191 43.5621 59.1272 43.0702 58.5205 43.0702Z" fill="#27AE60"/>
</svg>
