<svg width="72" height="72" viewBox="0 0 72 72" fill="none" xmlns="http://www.w3.org/2000/svg">
<path d="M51.75 2.25H20.25C19.0569 2.25134 17.9131 2.72588 17.0695 3.5695C16.2259 4.41312 15.7513 5.55694 15.75 6.75V65.25C15.7513 66.4431 16.2259 67.5869 17.0695 68.4305C17.9131 69.2741 19.0569 69.7487 20.25 69.75H51.75C52.9431 69.7487 54.0869 69.2741 54.9305 68.4305C55.7741 67.5869 56.2487 66.4431 56.25 65.25V6.75C56.2487 5.55694 55.7741 4.41312 54.9305 3.5695C54.0869 2.72588 52.9431 2.25134 51.75 2.25ZM41.3092 4.5L40.7467 6.75H31.2533L30.6908 4.5H41.3092ZM54 65.25C53.9993 65.8465 53.762 66.4184 53.3402 66.8402C52.9184 67.262 52.3465 67.4993 51.75 67.5H20.25C19.6535 67.4993 19.0816 67.262 18.6598 66.8402C18.238 66.4184 18.0007 65.8465 18 65.25V6.75C18.0007 6.15348 18.238 5.58159 18.6598 5.15979C19.0816 4.73799 19.6535 4.50071 20.25 4.5H28.3717L29.2836 8.14781C29.3445 8.39122 29.4849 8.6073 29.6827 8.76171C29.8804 8.91612 30.1241 8.99999 30.375 9H41.625C41.8759 8.99999 42.1196 8.91612 42.3173 8.76171C42.5151 8.6073 42.6555 8.39122 42.7164 8.14781L43.6283 4.5H51.75C52.3465 4.50071 52.9184 4.73799 53.3402 5.15979C53.762 5.58159 53.9993 6.15348 54 6.75V65.25Z" fill="#BDBDBD"/>
<path d="M36 20.25C32.885 20.25 29.8399 21.1737 27.2498 22.9044C24.6597 24.635 22.641 27.0948 21.4489 29.9727C20.2568 32.8507 19.9449 36.0175 20.5526 39.0727C21.1604 42.1279 22.6604 44.9343 24.8631 47.1369C27.0658 49.3396 29.8721 50.8397 32.9273 51.4474C35.9825 52.0551 39.1493 51.7432 42.0273 50.5511C44.9052 49.359 47.365 47.3403 49.0956 44.7502C50.8263 42.1602 51.75 39.1151 51.75 36C51.7453 31.8243 50.0844 27.821 47.1317 24.8683C44.179 21.9156 40.1757 20.2547 36 20.25ZM36 49.5C33.33 49.5 30.7199 48.7082 28.4998 47.2248C26.2797 45.7414 24.5494 43.633 23.5276 41.1662C22.5059 38.6994 22.2385 35.985 22.7594 33.3663C23.2803 30.7475 24.5661 28.3421 26.4541 26.4541C28.3421 24.5661 30.7475 23.2803 33.3663 22.7594C35.985 22.2385 38.6994 22.5058 41.1662 23.5276C43.633 24.5494 45.7414 26.2797 47.2248 28.4998C48.7082 30.7199 49.5 33.33 49.5 36C49.496 39.5792 48.0724 43.0106 45.5415 45.5415C43.0106 48.0724 39.5792 49.496 36 49.5Z" fill="#BDBDBD"/>
<path d="M40.8295 30.7045L32.7998 38.7342L31.311 36.5009C31.2294 36.3772 31.1242 36.2707 31.0013 36.1878C30.8785 36.1048 30.7405 36.0469 30.5952 36.0175C30.4499 35.988 30.3002 35.9876 30.1547 36.0161C30.0093 36.0447 29.8709 36.1018 29.7476 36.184C29.6242 36.2663 29.5184 36.3721 29.436 36.4954C29.3537 36.6186 29.2966 36.757 29.2679 36.9024C29.2392 37.0479 29.2396 37.1975 29.269 37.3429C29.2983 37.4882 29.3561 37.6262 29.439 37.7491L31.689 41.1241C31.7813 41.2626 31.9032 41.3789 32.0459 41.4645C32.1886 41.5502 32.3486 41.6031 32.5142 41.6195C32.5511 41.6232 32.5881 41.625 32.625 41.625C32.7727 41.625 32.919 41.5959 33.0555 41.5394C33.192 41.4829 33.316 41.4 33.4205 41.2955L42.4205 32.2955C42.525 32.1911 42.6079 32.0671 42.6644 31.9306C42.7209 31.7941 42.75 31.6478 42.75 31.5C42.75 31.3523 42.7209 31.206 42.6644 31.0695C42.6079 30.933 42.525 30.809 42.4205 30.7045C42.316 30.6 42.192 30.5172 42.0555 30.4606C41.919 30.4041 41.7727 30.375 41.625 30.375C41.4773 30.375 41.331 30.4041 41.1945 30.4606C41.058 30.5172 40.934 30.6 40.8295 30.7045Z" fill="#BDBDBD"/>
</svg>
