<svg width="75" height="75" viewBox="0 0 75 75" fill="none" xmlns="http://www.w3.org/2000/svg">
<g clip-path="url(#clip0)">
<path d="M52.0627 75.0056C53.7571 75.001 55.2398 73.8661 55.6866 72.2318L59.1422 59.3301L72.2293 55.8315C74.2234 55.2892 75.4041 53.2379 74.8727 51.2415L68.0872 25.9511L68.6243 23.9518C69.11 22.1105 68.1375 20.1976 66.3636 19.5042L63.3084 8.09897C62.7615 6.10656 60.7153 4.92416 58.7161 5.44472L36.3975 11.4317L17.6827 6.41432C16.9156 6.20381 16.101 6.24786 15.3614 6.53959L10.6861 1.87234C9.11015 0.282078 6.80427 -0.343731 4.64082 0.23231C2.47738 0.808352 0.787582 2.49758 0.210968 4.66102C-0.365645 6.82447 0.259019 9.13092 1.84871 10.7069L10.3703 19.2285L0.160629 57.3422C-0.373654 59.3409 0.808175 61.3951 2.80458 61.9386L51.0897 74.8757C51.4066 74.9621 51.7338 75.0062 52.0627 75.0056ZM72.4547 51.8873C72.6314 52.5503 72.2407 53.2321 71.5795 53.4146L59.8905 56.5385L66.7898 30.7825L72.4547 51.8873ZM59.3556 7.86157C59.6777 7.77348 60.0215 7.8181 60.3103 7.98513C60.5992 8.1516 60.8092 8.42732 60.8938 8.74995L63.5595 18.7074L41.2249 12.7239L59.3556 7.86157ZM37.8619 37.8901L31.5529 35.7873L35.7591 31.5771L37.8619 37.8855V37.8901ZM32.7759 31.0325L22.1726 20.4281C21.6847 19.9401 20.893 19.9401 20.405 20.4287C19.9171 20.9166 19.9176 21.7083 20.4062 22.1963L31.01 32.7978L29.2436 34.5666L11.5699 16.8929L13.3369 15.1259L16.8704 18.6611C17.1867 18.9768 17.6467 19.1004 18.0785 18.9843C18.5099 18.8687 18.8468 18.5318 18.9623 18.1005C19.0779 17.6692 18.9549 17.2087 18.6391 16.8929L15.1051 13.3589L16.8721 11.5907L34.5429 29.2644L32.7759 31.0325ZM8.03472 13.3589L13.3369 8.05664L15.104 9.82366L9.80289 15.1259L8.03472 13.3589ZM2.51857 6.28961C2.51857 4.77314 3.43211 3.4054 4.83303 2.82536C6.23452 2.24531 7.84709 2.56622 8.91909 3.63879L11.5699 6.28961L6.2677 11.5918L3.61573 8.93986C2.91098 8.23855 2.51571 7.28439 2.51857 6.28961ZM2.57634 57.9984L12.4131 21.2713L28.3586 37.2168C28.4891 37.3444 28.6458 37.4411 28.8185 37.5005C28.8283 37.5005 28.8357 37.5143 28.8471 37.5177L37.0788 40.2669C37.3356 40.3516 37.605 40.3933 37.8756 40.3922C38.3464 40.3905 38.8069 40.2549 39.2027 40.0009L53.5735 43.8599C53.6793 43.8891 53.7885 43.9039 53.8984 43.9034C54.5259 43.9034 55.0556 43.4383 55.1368 42.8165C55.2186 42.1947 54.8268 41.6089 54.221 41.447L40.3502 37.7231C40.3377 37.5108 40.2993 37.3009 40.2353 37.0978L37.4861 28.8656C37.4861 28.8542 37.4723 28.8468 37.4672 28.8353C37.4077 28.6643 37.311 28.5081 37.1846 28.3783L17.8703 9.05599L65.3202 21.7661C65.6412 21.8519 65.9146 22.0613 66.0805 22.349C66.2464 22.6362 66.291 22.9777 66.2052 23.2986L53.2737 71.578C53.1885 71.8989 52.9785 72.1729 52.6908 72.3388C52.4031 72.5047 52.061 72.5493 51.7407 72.4629L3.46071 59.5303C3.14037 59.4445 2.86694 59.2351 2.70047 58.9479C2.53458 58.6602 2.48996 58.3187 2.57634 57.9984Z" fill="#3300FF"/>
<path d="M57.7826 29.4143C58.4096 29.4138 58.9393 28.9487 59.0211 28.3269C59.1023 27.7057 58.7105 27.1193 58.1053 26.9574L40.3315 22.1952C39.8956 22.0654 39.4242 22.1826 39.0999 22.5013C38.7755 22.8193 38.6497 23.289 38.771 23.7266C38.8922 24.1648 39.2423 24.5023 39.6839 24.6081L57.4589 29.3714C57.5647 29.4 57.6734 29.4143 57.7826 29.4143Z" fill="#3300FF"/>
<path d="M55.8405 36.6557C56.4675 36.6551 56.9972 36.1906 57.079 35.5688C57.1608 34.947 56.769 34.3612 56.1632 34.1988L44.0789 30.9662C43.6447 30.8426 43.1779 30.9622 42.857 31.2802C42.5361 31.5977 42.412 32.0639 42.5315 32.4993C42.6511 32.9346 42.996 33.2715 43.4342 33.3802L55.5185 36.6133C55.6232 36.6414 55.7319 36.6557 55.8405 36.6557Z" fill="#3300FF"/>
<path d="M17.2806 39.3049L13.6568 38.3341C13.222 38.2072 12.7524 38.325 12.4297 38.643C12.1071 38.9605 11.9813 39.4279 12.1014 39.8649C12.2215 40.3014 12.5682 40.6389 13.0081 40.747L16.6319 41.7195C16.7383 41.7475 16.847 41.7618 16.9568 41.7618C17.5844 41.7624 18.1146 41.2973 18.1964 40.6755C18.2782 40.0537 17.8864 39.4673 17.2806 39.3049Z" fill="#3300FF"/>
<path d="M53.1674 50.2129C53.3459 49.5465 52.95 48.8623 52.2842 48.6833L24.5209 41.2456C23.8768 41.1198 23.2453 41.5145 23.0748 42.1483C22.9049 42.7821 23.2544 43.44 23.8751 43.6533L51.6366 51.0915C51.7425 51.1207 51.8512 51.135 51.9604 51.135C52.525 51.1356 53.0198 50.7575 53.1674 50.2129Z" fill="#3300FF"/>
<path d="M15.3386 46.5468L11.7147 45.5755C11.0495 45.401 10.3682 45.7969 10.1903 46.461C10.0123 47.1257 10.4053 47.8093 11.0689 47.9901L14.6928 48.9597C14.798 48.9888 14.9067 49.0037 15.0165 49.0031C15.6435 49.0037 16.1738 48.5386 16.2556 47.9168C16.3379 47.295 15.9461 46.7087 15.3397 46.5468H15.3386Z" fill="#3300FF"/>
<path d="M50.3433 55.9265L22.5817 48.4871C22.1458 48.3578 21.6745 48.4751 21.3501 48.7932C21.0258 49.1118 20.8999 49.5809 21.0212 50.019C21.1425 50.4566 21.4926 50.7941 21.9342 50.9005L49.6963 58.3393C49.8021 58.3685 49.9114 58.3834 50.0212 58.3834C50.6482 58.3828 51.1779 57.9177 51.2597 57.2959C51.3409 56.6741 50.949 56.0883 50.3433 55.9265Z" fill="#3300FF"/>
</g>
<defs>
<clipPath id="clip0">
<rect width="75" height="75" fill="white"/>
</clipPath>
</defs>
</svg>
