<svg width="75" height="75" viewBox="0 0 75 75" fill="none" xmlns="http://www.w3.org/2000/svg">
<g clip-path="url(#clip0)">
<path d="M52.0628 75.0057C53.7572 75.0011 55.2399 73.8662 55.6867 72.2319L59.1424 59.3302L72.2294 55.8316C74.2235 55.2893 75.4042 53.238 74.8728 51.2416L68.0873 25.9512L68.6245 23.952C69.1101 22.1106 68.1376 20.1977 66.3638 19.5044L63.3085 8.09909C62.7616 6.10668 60.7155 4.92428 58.7162 5.44484L36.3976 11.4318L17.6828 6.41444C16.9157 6.20393 16.1011 6.24798 15.3615 6.53972L10.6862 1.87246C9.11027 0.2822 6.80439 -0.343609 4.64095 0.232432C2.4775 0.808474 0.787704 2.4977 0.21109 4.66115C-0.365523 6.82459 0.259141 9.13105 1.84883 10.707L10.3705 19.2286L0.160751 57.3424C-0.373532 59.3411 0.808297 61.3952 2.80471 61.9387L51.0898 74.8759C51.4067 74.9622 51.7339 75.0063 52.0628 75.0057ZM72.4548 51.8874C72.6316 52.5504 72.2409 53.2323 71.5796 53.4147L59.8906 56.5386L66.7899 30.7827L72.4548 51.8874ZM59.3557 7.86169C59.6778 7.7736 60.0216 7.81822 60.3105 7.98526C60.5993 8.15172 60.8093 8.42744 60.8939 8.75007L63.5596 18.7075L41.225 12.724L59.3557 7.86169ZM37.862 37.8902L31.553 35.7874L35.7592 31.5772L37.862 37.8856V37.8902ZM32.776 31.0326L22.1727 20.4282C21.6848 19.9403 20.8931 19.9403 20.4051 20.4288C19.9172 20.9167 19.9178 21.7084 20.4063 22.1964L31.0101 32.7979L29.2437 34.5667L11.57 16.893L13.3371 15.126L16.8705 18.6612C17.1869 18.977 17.6468 19.1005 18.0787 18.9844C18.51 18.8688 18.8469 18.5319 18.9625 18.1006C19.078 17.6693 18.955 17.2088 18.6393 16.893L15.1052 13.359L16.8722 11.5908L34.543 29.2645L32.776 31.0326ZM8.03484 13.359L13.3371 8.05676L15.1041 9.82378L9.80301 15.126L8.03484 13.359ZM2.51869 6.28974C2.51869 4.77327 3.43223 3.40552 4.83315 2.82548C6.23464 2.24543 7.84721 2.56634 8.91921 3.63891L11.57 6.28974L6.26782 11.592L3.61586 8.93999C2.91111 8.23867 2.51583 7.28451 2.51869 6.28974ZM2.57646 57.9985L12.4132 21.2714L28.3588 37.2169C28.4892 37.3445 28.6459 37.4412 28.8187 37.5007C28.8284 37.5007 28.8358 37.5144 28.8473 37.5178L37.0789 40.267C37.3357 40.3517 37.6052 40.3935 37.8757 40.3923C38.3465 40.3906 38.807 40.255 39.2029 40.001L53.5736 43.86C53.6794 43.8892 53.7887 43.9041 53.8985 43.9035C54.526 43.9035 55.0557 43.4384 55.137 42.8166C55.2188 42.1948 54.8269 41.609 54.2211 41.4472L40.3504 37.7232C40.3378 37.511 40.2995 37.301 40.2354 37.098L37.4862 28.8658C37.4862 28.8543 37.4724 28.8469 37.4673 28.8354C37.4078 28.6644 37.3111 28.5082 37.1847 28.3784L17.8704 9.05611L65.3204 21.7662C65.6413 21.852 65.9147 22.0614 66.0806 22.3491C66.2465 22.6363 66.2911 22.9778 66.2053 23.2987L53.2738 71.5781C53.1886 71.899 52.9787 72.173 52.6909 72.3389C52.4032 72.5048 52.0611 72.5494 51.7408 72.463L3.46083 59.5304C3.14049 59.4446 2.86706 59.2352 2.7006 58.9481C2.53471 58.6603 2.49009 58.3188 2.57646 57.9985Z" fill="#BDBDBD"/>
<path d="M57.7826 29.4142C58.4096 29.4136 58.9393 28.9486 59.0211 28.3268C59.1023 27.7055 58.7105 27.1192 58.1053 26.9573L40.3315 22.1951C39.8956 22.0653 39.4242 22.1825 39.0999 22.5011C38.7755 22.8192 38.6497 23.2888 38.771 23.7264C38.8922 24.1646 39.2423 24.5021 39.6839 24.608L57.4589 29.3713C57.5647 29.3999 57.6734 29.4142 57.7826 29.4142Z" fill="#BDBDBD"/>
<path d="M55.8406 36.6558C56.4676 36.6552 56.9973 36.1907 57.0791 35.5689C57.1609 34.9471 56.769 34.3614 56.1632 34.1989L44.0789 30.9663C43.6448 30.8428 43.178 30.9623 42.8571 31.2804C42.5362 31.5978 42.412 32.0641 42.5316 32.4994C42.6511 32.9347 42.9961 33.2716 43.4343 33.3803L55.5185 36.6135C55.6232 36.6415 55.7319 36.6558 55.8406 36.6558Z" fill="#BDBDBD"/>
<path d="M17.2807 39.3046L13.6568 38.3339C13.2221 38.2069 12.7524 38.3247 12.4298 38.6428C12.1072 38.9603 11.9813 39.4276 12.1014 39.8647C12.2216 40.3011 12.5682 40.6386 13.0081 40.7467L16.632 41.7192C16.7384 41.7472 16.8471 41.7615 16.9569 41.7615C17.5844 41.7621 18.1147 41.297 18.1965 40.6752C18.2783 40.0534 17.8865 39.4671 17.2807 39.3046Z" fill="#BDBDBD"/>
<path d="M53.1674 50.2128C53.3459 49.5463 52.95 48.8622 52.2842 48.6831L24.5209 41.2455C23.8768 41.1197 23.2453 41.5144 23.0748 42.1482C22.9049 42.782 23.2544 43.4398 23.8751 43.6532L51.6366 51.0914C51.7425 51.1206 51.8512 51.1349 51.9604 51.1349C52.525 51.1355 53.0198 50.7573 53.1674 50.2128Z" fill="#BDBDBD"/>
<path d="M15.3386 46.5467L11.7147 45.5754C11.0495 45.4009 10.3682 45.7967 10.1903 46.4609C10.0123 47.1256 10.4053 47.8092 11.0689 47.9899L14.6928 48.9595C14.798 48.9887 14.9067 49.0036 15.0165 49.003C15.6435 49.0036 16.1738 48.5385 16.2556 47.9167C16.3379 47.2949 15.9461 46.7086 15.3397 46.5467H15.3386Z" fill="#BDBDBD"/>
<path d="M50.3433 55.9266L22.5818 48.4872C22.1459 48.358 21.6745 48.4752 21.3502 48.7933C21.0258 49.1119 20.9 49.581 21.0212 50.0192C21.1425 50.4568 21.4926 50.7943 21.9342 50.9007L49.6963 58.3394C49.8021 58.3686 49.9114 58.3835 50.0212 58.3835C50.6482 58.3829 51.1779 57.9178 51.2597 57.296C51.3409 56.6742 50.9491 56.0885 50.3433 55.9266Z" fill="#BDBDBD"/>
</g>
<defs>
<clipPath id="clip0">
<rect width="75" height="75" fill="white"/>
</clipPath>
</defs>
</svg>
