<svg width="100" height="100" viewBox="0 0 100 100" fill="none" xmlns="http://www.w3.org/2000/svg">
<path d="M95.1613 22.5806H58.0645V8.06452C58.0645 3.61774 54.4468 0 50 0H8.06452C3.61774 0 0 3.61774 0 8.06452V91.9355C0 96.3823 3.61774 100 8.06452 100H50C54.4468 100 58.0645 96.3823 58.0645 91.9355V67.7419H54.8387V83.871H3.22581V16.129H54.8387V22.5806H40.3226C37.6548 22.5806 35.4839 24.7516 35.4839 27.4194V50.9452L21.9129 64.5161H95.1613C97.829 64.5161 100 62.3452 100 59.6774V27.4194C100 24.7516 97.829 22.5806 95.1613 22.5806ZM54.8387 87.0968V91.9355C54.8387 94.6032 52.6677 96.7742 50 96.7742H8.06452C5.39677 96.7742 3.22581 94.6032 3.22581 91.9355V87.0968H54.8387ZM3.22581 12.9032V8.06452C3.22581 5.39677 5.39677 3.22581 8.06452 3.22581H50C52.6677 3.22581 54.8387 5.39677 54.8387 8.06452V12.9032H3.22581ZM96.7742 59.6774C96.7742 60.5677 96.0516 61.2903 95.1613 61.2903H29.7L38.7097 52.2806V27.4194C38.7097 26.529 39.4323 25.8065 40.3226 25.8065H95.1613C96.0516 25.8065 96.7742 26.529 96.7742 27.4194V59.6774Z" fill="#FF3C8E"/>
<path d="M83.871 41.9355C82.092 41.9355 80.6452 40.4887 80.6452 38.7097C80.6452 36.9306 82.092 35.4839 83.871 35.4839C85.6501 35.4839 87.0969 36.9306 87.0969 38.7097H90.3227C90.3227 35.1516 87.4291 32.2581 83.871 32.2581C80.313 32.2581 77.4194 35.1516 77.4194 38.7097C77.4194 42.2677 80.313 45.1613 83.871 45.1613C85.6501 45.1613 87.0969 46.6081 87.0969 48.3871C87.0969 50.1661 85.6501 51.6129 83.871 51.6129C82.092 51.6129 80.6452 50.1661 80.6452 48.3871H77.4194C77.4194 51.9452 80.313 54.8387 83.871 54.8387C87.4291 54.8387 90.3227 51.9452 90.3227 48.3871C90.3227 44.829 87.4291 41.9355 83.871 41.9355Z" fill="#FF3C8E"/>
<path d="M51.613 41.9355C49.834 41.9355 48.3872 40.4887 48.3872 38.7097C48.3872 36.9306 49.834 35.4839 51.613 35.4839C53.392 35.4839 54.8388 36.9306 54.8388 38.7097H58.0646C58.0646 35.1516 55.1711 32.2581 51.613 32.2581C48.0549 32.2581 45.1614 35.1516 45.1614 38.7097C45.1614 42.2677 48.0549 45.1613 51.613 45.1613C53.392 45.1613 54.8388 46.6081 54.8388 48.3871C54.8388 50.1661 53.392 51.6129 51.613 51.6129C49.834 51.6129 48.3872 50.1661 48.3872 48.3871H45.1614C45.1614 51.9452 48.0549 54.8387 51.613 54.8387C55.1711 54.8387 58.0646 51.9452 58.0646 48.3871C58.0646 44.829 55.1711 41.9355 51.613 41.9355Z" fill="#FF3C8E"/>
<path d="M69.708 32.2581L67.7419 40.1242L65.7758 32.2581H61.2903V53.2258H64.5161V40.521L67.7419 53.4242L70.9677 40.521V53.2258H74.1935V32.2581H69.708Z" fill="#FF3C8E"/>
<path d="M35.4838 90.3225H22.5806V93.5483H35.4838V90.3225Z" fill="#FF3C8E"/>
<path d="M51.613 67.7419H48.3872V70.9678H51.613V67.7419Z" fill="#FF3C8E"/>
<path d="M45.1614 67.7419H41.9355V70.9678H45.1614V67.7419Z" fill="#FF3C8E"/>
<path d="M38.7097 67.7419H35.4839V70.9678H38.7097V67.7419Z" fill="#FF3C8E"/>
<path d="M32.258 67.7419H29.0322V70.9678H32.258V67.7419Z" fill="#FF3C8E"/>
</svg>
