<svg width="100" height="100" viewBox="0 0 100 100" fill="none" xmlns="http://www.w3.org/2000/svg">
<path d="M50.0177 0.0102544C30.0114 0.00733838 11.9302 11.9326 4.05582 30.3239L3.43261 30.5306L3.67423 31.2554C-6.69361 56.8263 5.6307 85.9605 31.2016 96.3283C37.1739 98.7499 43.5582 99.993 50.0029 99.9894C77.6113 99.9936 99.9958 77.6157 100 50.0073C100.004 22.3989 77.6263 0.0142119 50.0177 0.0102544ZM89.2289 75.2038L86.6619 72.6385V66.663C86.6648 66.4052 86.6078 66.1502 86.4953 65.9182L79.9966 52.9392V46.6672C79.9966 46.1102 79.7186 45.5899 79.2551 45.2808L74.2562 41.9482C73.8644 41.6866 73.3801 41.603 72.9231 41.7182L66.8011 43.2479L56.5182 38.8355L55.1035 28.9242L59.0244 25.005H67.4409L70.2737 29.2625C70.5294 29.6453 70.9325 29.9055 71.3868 29.9807L81.3847 31.647C81.6525 31.692 81.9271 31.6701 82.1845 31.5837L91.3926 28.5143C99.1158 43.3352 98.2897 61.1608 89.2289 75.2038ZM82.3561 16.4302L79.6467 18.2365L72.0933 16.7251L67.1926 15.0938C66.8927 14.9919 66.5699 14.979 66.2628 15.0571L60.0675 16.6051L57.3514 15.7003L59.3643 11.6745H64.9998C65.2583 11.6747 65.5132 11.6149 65.7446 11.4995L71.5101 8.61679C75.4805 10.6893 79.1331 13.3204 82.3561 16.4302ZM31.7517 7.06378L35.7509 9.72989C35.9475 9.8607 36.1695 9.94818 36.4024 9.98651L44.4774 11.3329L43.6892 13.6907L39.4818 15.0954C39.105 15.2208 38.7852 15.4766 38.5803 15.817L33.7946 23.792L26.1079 28.4043L14.7769 30.0223C13.9556 30.1383 13.3449 30.8409 13.3439 31.6703V36.6693C13.3439 37.1113 13.5197 37.5349 13.8321 37.8474L16.6765 40.6918V43.5545L9.74463 38.9321L7.23016 31.3887C12.0142 20.4577 20.7825 11.7595 31.7517 7.06378ZM27.0077 61.6974L19.4759 60.1894L16.6765 54.6055V50.6897L22.8852 44.481L25.1831 49.0784C25.4653 49.6432 26.0429 50 26.6744 49.9998H37.3955L41.9096 57.5233C42.2108 58.0246 42.7527 58.3312 43.3376 58.3314H47.97L46.8036 64.1752L40.4949 70.4839C40.1818 70.7961 40.0056 71.2198 40.005 71.662V75.8278L34.0062 80.3269C33.5867 80.6416 33.3397 81.1354 33.3397 81.6599V87.6787L31.2668 86.9921L28.3408 79.6737V63.3304C28.341 62.5385 27.7836 61.8557 27.0077 61.6974ZM21.9987 87.3131C6.28764 75.5262 -0.356595 55.1604 5.38054 36.376L6.76525 40.5285C6.88189 40.8799 7.11226 41.1825 7.42012 41.3883L15.7267 46.9255L13.8321 48.8217C13.5197 49.1342 13.3439 49.5578 13.3439 49.9998V54.9988C13.3437 55.2573 13.4035 55.5122 13.5188 55.7436L16.8515 62.4089C17.0823 62.8692 17.5128 63.1971 18.0179 63.2971L25.0164 64.6951V79.9936C25.0162 80.2052 25.0564 80.4152 25.1348 80.6118L28.4674 88.9434C28.6499 89.3985 29.0235 89.7503 29.4888 89.9049L34.4878 91.5712C34.6549 91.6278 34.8298 91.657 35.006 91.6578C35.9263 91.6578 36.6723 90.9117 36.6723 89.9915V82.4931L42.6711 77.994C43.0906 77.6793 43.3376 77.1854 43.3376 76.6609V72.3518L49.5147 66.1748C49.7469 65.9421 49.9052 65.6457 49.9696 65.3233L51.6359 56.9917C51.8163 56.0892 51.231 55.2115 50.3285 55.0311C50.2212 55.0096 50.1123 54.9988 50.0029 54.9988H44.2808L39.7667 47.4754C39.4655 46.974 38.9235 46.6674 38.3387 46.6672H27.7042L24.8415 40.9234C24.6017 40.4439 24.146 40.109 23.6167 40.0236C23.0877 39.9321 22.5476 40.1067 22.172 40.4902L20.0092 42.6447V40.0019C20.0092 39.5599 19.8334 39.1363 19.5209 38.8238L16.6765 35.9794V33.115L26.9111 31.6537C27.1308 31.6218 27.3422 31.5464 27.5326 31.432L35.8642 26.4331C36.0979 26.2927 36.2937 26.0969 36.4341 25.8632L41.1164 18.0598L45.5305 16.5868C46.0289 16.4233 46.4201 16.0323 46.5836 15.5337L48.2499 10.5347C48.5386 9.66095 48.0643 8.71844 47.1906 8.42975C47.11 8.40309 47.0273 8.38268 46.9435 8.36851L37.2989 6.76051L35.6042 5.63075C46.0902 2.21771 57.4474 2.64012 67.6509 6.82217L64.6065 8.34185H58.3345C57.6998 8.33831 57.1185 8.69573 56.8348 9.26333L53.5022 15.9286C53.0916 16.7522 53.4264 17.7528 54.2499 18.1633C54.3201 18.1983 54.3926 18.2283 54.467 18.2531L59.4659 19.9194C59.7659 20.0213 60.0887 20.0342 60.3957 19.9561L66.5911 18.4081L71.1302 19.9194C71.1951 19.9428 71.262 19.9607 71.3301 19.9728L79.6617 21.6391C80.095 21.7274 80.5457 21.6387 80.9131 21.3925L84.7057 18.863C86.5721 20.9419 88.2495 23.1831 89.7179 25.5599L81.5197 28.2927L72.6432 26.813L69.7104 22.4139C69.403 21.953 68.8865 21.6751 68.3324 21.6724H58.3345C57.8925 21.6724 57.4688 21.8482 57.1564 22.1606L52.1575 27.1596C51.7863 27.5306 51.6115 28.0548 51.6859 28.5743L53.3522 40.2385C53.4361 40.8153 53.8152 41.3062 54.352 41.5333L66.0162 46.5322C66.3503 46.677 66.7232 46.7068 67.076 46.6172L73.0264 45.1292L76.664 47.5587V53.3325C76.6611 53.5903 76.7182 53.8453 76.8306 54.0773L83.3293 67.0563V73.3283C83.3293 73.7703 83.5051 74.194 83.8175 74.5064L87.3035 77.994C71.8436 98.6008 42.6055 102.773 21.9987 87.3131Z" fill="#27AE60"/>
</svg>
