<svg width="100" height="92" viewBox="0 0 100 92" fill="none" xmlns="http://www.w3.org/2000/svg">
<path d="M82.5 15.9569C82.3201 16.2274 82.1095 16.5364 81.8787 16.8752C79.5058 20.3583 77.1892 23.9815 77.1892 26.645C77.1892 31.1579 80.7001 33.519 84.1683 33.519C87.6392 33.519 91.1527 31.1579 91.1527 26.645C91.1527 23.9813 88.8361 20.3581 86.4632 16.8752C86.2324 16.5364 86.0218 16.2276 85.8419 15.9569C85.8398 15.9534 85.8375 15.95 85.8351 15.9467C85.6603 15.6887 85.1296 14.9045 84.1693 14.9045C84.1671 14.9045 84.1652 14.9045 84.163 14.9045C83.1994 14.9079 82.6738 15.6961 82.5 15.9569ZM84.1708 18.7139C85.5697 20.769 88.223 24.7225 88.223 26.645C88.223 29.3698 86.1865 30.5893 84.1681 30.5893C82.1525 30.5893 80.1187 29.3696 80.1187 26.645C80.1189 24.7223 82.7722 20.7688 84.1708 18.7139Z" fill="#F2994A"/>
<path d="M98.535 71.5378C99.344 71.5378 99.9999 70.8819 99.9999 70.0729V58.0312C99.9999 56.6616 98.8833 55.5476 97.5108 55.5476H95.294V51.0919H95.944C97.3012 51.0919 98.4053 49.9878 98.4053 48.6306V42.247C98.4053 40.8897 97.3012 39.7856 95.944 39.7856H73.1567C71.7995 39.7856 70.6954 40.8897 70.6954 42.247V48.6306C70.6954 49.9878 71.7995 51.0919 73.1567 51.0919H73.8067V55.5478H71.5899C70.2174 55.5478 69.1008 56.6618 69.1008 58.0313V88.5981C69.1008 89.9706 70.2174 91.0872 71.5899 91.0872H97.5108C98.8833 91.0872 99.9999 89.9706 99.9999 88.5981V76.8331C99.9999 76.0241 99.344 75.3683 98.535 75.3683C97.726 75.3683 97.0702 76.0241 97.0702 76.8331V88.1575H72.0305V82.2677H83.5926C84.9284 82.2677 86.0153 81.181 86.0153 79.845V66.7899C86.0153 65.4542 84.9286 64.3673 83.5926 64.3673H72.0305V58.4774H97.0702V70.0731C97.0702 70.8821 97.726 71.5378 98.535 71.5378ZM83.0854 67.297V79.3378H72.0305V67.297H83.0854ZM92.3643 55.5478H76.7364V51.0919H92.3643V55.5478ZM75.2715 48.1622H73.6249V42.7151H95.4756V48.1622H93.829H75.2715Z" fill="#F2994A"/>
<path d="M69.5139 17.5268L83.6317 3.41389C84.204 2.84202 84.204 1.91448 83.6321 1.34241C83.0602 0.770142 82.1327 0.769946 81.5606 1.34202L67.3759 15.5219C66.546 15.035 65.5967 14.7744 64.6059 14.7744C63.1401 14.7744 61.7645 15.3428 60.7329 16.3744L58.604 18.5033C58.3329 18.4545 49.846 18.6143 49.846 18.6143C48.4233 18.6442 47.994 18.7506 47.0409 19.7307C46.9581 19.8158 40.071 26.7059 40.071 26.7059L40.0708 26.7061L40.0706 26.7063L29.8911 36.8862C29.8909 36.8864 29.8907 36.8865 29.8905 36.8867C29.8903 36.8869 29.8901 36.8871 29.8899 36.8873L20.7419 46.0356L19.3946 44.6879C19.3919 44.6852 19.3891 44.6824 19.3862 44.6797C18.4612 43.769 16.9643 43.7729 16.0495 44.6879L12.4177 48.3199C11.9723 48.7653 11.727 49.3582 11.727 49.9897C11.727 50.6211 11.9723 51.2139 12.4177 51.6594L19.1165 58.3582L11.3495 66.1299L8.41609 63.1963C6.49246 61.2727 3.36277 61.2727 1.43933 63.1963C-0.478637 65.1145 -0.479614 68.2408 1.43738 70.1655C1.43816 70.1662 1.43894 70.167 1.43972 70.1678L15.1171 83.8405C16.0446 84.7717 17.2833 85.2848 18.6048 85.2848C19.9264 85.2848 21.1649 84.7719 22.0884 83.8448C23.0184 82.9186 23.5313 81.6824 23.5327 80.3641C23.5341 79.043 23.0217 77.8026 22.0905 76.8713L19.1565 73.9371L26.9237 66.1655L33.6137 72.8557C34.0598 73.309 34.6567 73.5586 35.294 73.5586H35.2942C35.9317 73.5586 36.5284 73.309 36.9667 72.8639L40.5846 69.2457C41.0382 68.7994 41.2878 68.2026 41.2878 67.5651C41.2878 66.9276 41.0382 66.3305 40.593 65.8928L39.2454 64.5448L54.2067 49.5832C54.7788 49.0112 54.7788 48.0836 54.2067 47.5117C53.6346 46.9397 52.7071 46.9397 52.1352 47.5117L47.3581 52.2891L43.0811 48.0106C43.069 47.9975 43.0583 47.9838 43.0456 47.9711C43.0331 47.9586 43.0194 47.9477 43.0065 47.9358L32.9975 37.9231L36.0169 34.9037L39.1194 38.0065C39.4053 38.2926 39.7803 38.4356 40.1551 38.4356C40.53 38.4356 40.905 38.2926 41.1909 38.0065C41.763 37.4344 41.763 36.5071 41.1909 35.935L38.0884 32.8322L41.1081 29.8123L44.2135 32.9137C44.4995 33.1992 44.8741 33.342 45.2487 33.342C45.6239 33.342 45.9991 33.1989 46.2852 32.9123C46.8569 32.3399 46.8563 31.4123 46.2839 30.8408L43.1798 27.7408L46.2009 24.7196L49.3061 27.825C49.5921 28.1112 49.9671 28.2541 50.3419 28.2541C50.7167 28.2541 51.0917 28.1112 51.3776 27.825C51.9497 27.253 51.9497 26.3256 51.3776 25.7535L48.2721 22.6481C48.2721 22.6481 49.2903 21.6201 49.3489 21.5627C49.4942 21.5526 57.9112 21.3791 57.9733 21.3785C58.0188 21.4182 63.8632 27.2627 63.902 27.3073C63.9014 27.3703 63.7337 35.7842 63.7227 35.9324C63.6651 35.9912 57.018 42.6287 57.018 42.6287C56.446 43.2008 56.446 44.1283 57.018 44.7002C57.5901 45.2725 58.5177 45.2723 59.0895 44.7002C59.0895 44.7002 65.4682 38.324 65.553 38.2416C66.5346 37.2871 66.6413 36.8576 66.6714 35.4328C66.6714 35.4328 66.8257 26.9522 66.7774 26.6813L68.9055 24.5532C70.8149 22.6432 71.0167 19.6643 69.5139 17.5268ZM20.0188 78.9428C20.396 79.3201 20.6036 79.8237 20.603 80.3612C20.6024 80.8957 20.3958 81.3957 20.0169 81.7731C19.643 82.1483 19.1417 82.3551 18.605 82.3551C18.0682 82.3551 17.5669 82.1483 17.1907 81.7707L3.5116 68.0969C2.73347 67.3143 2.73289 66.0455 3.51062 65.2678C3.88738 64.891 4.3905 64.6836 4.92742 64.6836C5.46433 64.6836 5.96746 64.891 6.34421 65.2678L20.0188 78.9428ZM17.0848 71.8655L13.4208 68.2012L21.1878 60.4295L24.8518 64.0938L17.0848 71.8655ZM35.294 70.3932L22.2231 57.3219C22.2231 57.3219 22.2231 57.3217 22.2229 57.3217C22.2229 57.3217 22.2227 57.3217 22.2227 57.3215L14.8909 49.9895L17.7216 47.1586L19.6573 49.0949C19.6727 49.1117 19.687 49.1295 19.7032 49.1457C19.7194 49.1619 19.737 49.1762 19.7538 49.1914L30.768 60.2088C30.7747 60.2156 30.7801 60.2229 30.7868 60.2297C30.7934 60.2364 30.8009 60.242 30.8075 60.2485L38.1217 67.5649L35.294 70.3932ZM45.2862 54.3604L37.1739 62.4729L33.895 59.193L42.0073 51.0805L45.2862 54.3604ZM39.9362 49.0084L31.8239 57.1211L28.163 53.4592L36.2755 45.3465L39.9362 49.0084ZM34.2044 43.2744L26.0917 51.3873L22.8128 48.1074L30.9255 39.9946L34.2044 43.2744ZM66.8337 22.4813L65.0344 24.2805L61.0005 20.25L62.8044 18.4461C63.2829 17.9676 63.9227 17.7041 64.6059 17.7041C65.2891 17.7041 65.929 17.9676 66.4075 18.4461L66.8339 18.8725C67.8288 19.8674 67.8286 21.4864 66.8337 22.4813Z" fill="#F2994A"/>
</svg>
